HIERARCHY
ROOT Hips
{
	OFFSET -3.958830 18.904000 13.208200
	CHANNELS 6 Xposition Yposition Zposition Zrotation Yrotation Xrotation 
	JOINT LHipJoint
	{
		OFFSET 0.000000 0.000000 0.000000
		CHANNELS 3 Zrotation Yrotation Xrotation
		JOINT LeftUpLeg
		{
			OFFSET 1.800000 -1.400000 0.085000
			CHANNELS 3 Zrotation Yrotation Xrotation
			JOINT LeftLeg
			{
				OFFSET 2.215000 -6.000000 0.000000
				CHANNELS 3 Zrotation Yrotation Xrotation
				JOINT LeftFoot
				{
					OFFSET 2.500000 -6.900000 0.000000
					CHANNELS 3 Zrotation Yrotation Xrotation
					JOINT LeftToeBase
					{
						OFFSET 0.200000 -0.500000 1.950000
						CHANNELS 3 Zrotation Yrotation Xrotation
						End Site
						{
							OFFSET 0.000000 0.000000 0.000000
						}
					}
				}
			}
		}
	}
	JOINT RHipJoint
	{
		OFFSET 0.000000 0.000000 0.000000
		CHANNELS 3 Zrotation Yrotation Xrotation
		JOINT RightUpLeg
		{
			OFFSET -1.800000 -1.400000 0.085000
			CHANNELS 3 Zrotation Yrotation Xrotation
			JOINT RightLeg
			{
				OFFSET -2.215000 -6.000000 0.000000
				CHANNELS 3 Zrotation Yrotation Xrotation
				JOINT RightFoot
				{
					OFFSET -2.500000 -6.900000 0.000000
					CHANNELS 3 Zrotation Yrotation Xrotation
					JOINT RightToeBase
					{
						OFFSET -0.200000 -0.500000 1.950000
						CHANNELS 3 Zrotation Yrotation Xrotation
						End Site
						{
							OFFSET 0.000000 0.000000 0.000000
						}
					}
				}
			}
		}
	}
	JOINT LowerBack
	{
		OFFSET 0.000000 0.000000 0.000000
		CHANNELS 3 Zrotation Yrotation Xrotation
		JOINT Spine
		{
			OFFSET -0.087000 1.940000 -0.288900
			CHANNELS 3 Zrotation Yrotation Xrotation
			JOINT Spine1
			{
				OFFSET 0.000000 1.950000 0.060000
				CHANNELS 3 Zrotation Yrotation Xrotation
				JOINT Neck
				{
					OFFSET 0.000000 0.000000 0.000000
					CHANNELS 3 Zrotation Yrotation Xrotation
					JOINT Neck1
					{
						OFFSET 0.000000 1.600000 0.340000
						CHANNELS 3 Zrotation Yrotation Xrotation
						JOINT Head
						{
							OFFSET 0.000000 1.667000 -0.240000
							CHANNELS 3 Zrotation Yrotation Xrotation
							End Site
							{
								OFFSET 0.000000 0.000000 0.000000
							}
						}
					}
				}
				JOINT LeftShoulder
				{
					OFFSET 0.000000 0.000000 0.000000
					CHANNELS 3 Zrotation Yrotation Xrotation
					JOINT LeftArm
					{
						OFFSET 2.700000 1.550000 -0.730000
						CHANNELS 3 Zrotation Yrotation Xrotation
						JOINT LeftForeArm
						{
							OFFSET 5.450000 0.000000 0.000000
							CHANNELS 3 Zrotation Yrotation Xrotation
							JOINT LeftHand
							{
								OFFSET 3.450000 0.000000 0.000000
								CHANNELS 3 Zrotation Yrotation Xrotation
								JOINT LeftHandIndex1
								{
									OFFSET 0.750000 0.000000 0.000000
									CHANNELS 3 Zrotation Yrotation Xrotation
									End Site
									{
										OFFSET 0.000000 0.000000 0.000000
									}
								}
							}
						}
					}
				}
				JOINT RightShoulder
				{
					OFFSET 0.000000 0.000000 0.000000
					CHANNELS 3 Zrotation Yrotation Xrotation
					JOINT RightArm
					{
						OFFSET -2.700000 1.550000 -0.730000
						CHANNELS 3 Zrotation Yrotation Xrotation
						JOINT RightForeArm
						{
							OFFSET -5.450000 0.000000 0.000000
							CHANNELS 3 Zrotation Yrotation Xrotation
							JOINT RightHand
							{
								OFFSET -3.450000 0.000000 0.000000
								CHANNELS 3 Zrotation Yrotation Xrotation
								JOINT RightHandIndex1
								{
									OFFSET -0.750000 0.000000 0.000000
									CHANNELS 3 Zrotation Yrotation Xrotation
									End Site
									{
										OFFSET 0.000000 0.000000 0.000000
									}
								}
							}
						}
					}
				}
			}
		}
	}
}
MOTION
Frames: 12
Frame Time: 0.016667
1.997850 17.281570 -1.995280 -3.387340 -17.267714 7.691035 -14.762300 12.490445 4.051888 -13.501106 -3.726028 -17.888524 -3.746645 3.394582 9.179016 -0.269555 2.323055 3.818880 -0.079080 -0.200980 -0.072410 18.643364 -11.123520 3.224261 3.545307 -0.080334 -0.775231 8.858759 -6.981883 19.543730 -0.498940 -4.754041 2.807270 -0.163970 0.158920 0.115490 -4.489320 -0.392132 -8.294448 19.162861 5.563307 10.281877 -10.892176 9.310923 -2.511997 4.045265 -3.049863 -14.677076 -8.800042 -0.925729 40.581601 -5.119900 -1.111500 0.031170 -17.788041 -9.998946 4.796343 6.555376 11.621554 0.519549 5.564781 -4.702525 -0.156688 -3.890421 2.809833 0.228720 0.073820 -0.009840 0.036540 9.128366 16.406167 11.097528 -8.782729 -0.485239 -0.720322 -3.828858 1.474124 0.091613 2.806368 -0.961475 -0.085690 0.070390 0.119450 -0.028800 
2.027810 17.316840 -2.016680 -3.115395 -17.612886 7.752400 -14.763156 12.492418 4.070317 -13.434949 -3.720334 -17.865738 -3.794838 3.280262 8.068586 -0.295235 2.280460 3.843752 -0.085190 -0.212400 -0.074010 18.637552 -11.147067 3.188348 3.034951 -0.094153 -0.993825 8.610428 -6.877768 19.237907 -0.480301 -4.691547 2.833251 -0.162990 0.171940 0.108610 -4.476206 -0.381075 -8.290933 18.953827 5.559127 10.421420 -10.958300 9.333599 -2.484494 4.011740 -3.124756 -14.711705 -8.909002 -0.707304 40.595491 -4.786830 -1.080630 -0.245690 -17.552393 -10.049387 4.802214 6.627982 11.578370 0.569421 4.601110 -5.039468 -0.164234 -3.883954 2.789678 0.243490 0.075150 -0.013250 0.036660 8.985909 16.528680 11.096485 -8.728239 0.138104 -0.795483 -4.051199 0.833961 0.091002 2.815210 -0.936641 -0.103980 0.091050 0.127030 -0.033830 
2.076810 17.381180 -2.051500 -3.110207 -17.777067 7.924714 -14.765131 12.548276 4.038221 -12.449665 -3.510878 -17.633452 -4.177864 3.119747 5.717075 -0.294670 2.203665 3.877636 -0.056760 -0.179970 -0.053570 18.627167 -11.142462 3.186993 2.835419 -0.432999 -0.972538 8.263188 -6.577775 17.550109 -0.473282 -4.512482 2.895560 -0.151350 0.157180 0.105910 -4.450646 -0.470886 -8.293479 19.075884 5.308086 10.565995 -10.993078 9.162264 -2.449897 4.118167 -3.385906 -14.945225 -9.483963 -0.271933 41.122076 -4.368030 -1.018050 -0.889380 -16.861043 -9.829521 4.823294 5.431601 11.024435 0.426534 4.469200 -5.406234 -0.147613 -3.863556 2.774212 0.260000 0.054030 0.010520 0.050650 8.161669 16.618922 11.261191 -8.176547 0.674360 -0.769967 -3.832201 -0.316705 0.083115 2.851571 -0.912314 -0.096570 0.099610 0.104480 -0.030760 
2.140150 17.466160 -2.103330 -2.931147 -17.981937 7.883385 -14.769166 12.629531 4.014773 -11.224504 -3.297713 -17.313618 -4.688596 3.005883 3.488013 -0.314155 2.201399 3.870753 -0.030770 -0.152920 -0.031280 18.606198 -11.125461 3.176384 1.999490 -0.560528 -1.097419 8.677156 -6.488431 15.999751 -0.466108 -4.402039 2.925313 -0.132480 0.135420 0.107880 -4.406205 -0.622620 -8.311612 19.183379 4.636656 11.273125 -11.348897 8.704208 -2.834188 4.248340 -3.718859 -14.938746 -10.131713 0.530094 41.654036 -4.434320 -0.396880 -1.907410 -16.681982 -9.509728 4.698041 5.405905 11.469636 0.492799 4.048962 -6.249022 -0.131243 -3.838702 2.784826 0.282230 0.039920 0.025770 0.043750 7.704447 16.662069 11.120198 -8.069565 2.086836 -0.875962 -3.982673 -2.040877 0.072965 2.885133 -0.893995 -0.095470 0.100730 0.103030 -0.045000 
2.204100 17.552010 -2.166930 -2.902397 -18.986293 7.339222 -14.761659 12.693387 3.949236 -9.559101 -2.962791 -16.453691 -4.511908 2.825946 1.558588 -0.349217 2.230299 3.849074 0.025390 -0.090670 0.024130 18.593125 -11.169749 3.185674 1.329463 -0.760582 -0.817483 8.428850 -6.263859 14.529121 -0.478280 -4.310627 2.937739 -0.085110 0.100660 0.113480 -4.377164 -0.604485 -8.304783 19.232536 4.331249 12.397190 -11.506783 8.615750 -2.695225 4.434287 -3.736551 -14.597026 -10.004177 1.145841 42.475790 -4.795570 0.348980 -3.761490 -16.491392 -8.908017 4.335948 5.167551 10.939173 0.489019 4.650944 -6.824067 -0.150484 -3.833165 2.773612 0.311620 0.022710 0.055340 0.036690 6.992303 16.308116 10.704814 -7.431854 4.224654 -0.839914 -3.350711 -4.222052 0.035327 2.914185 -0.883360 -0.094770 0.110380 0.087820 -0.067310 
2.275590 17.639670 -2.231710 -2.753072 -20.391671 6.441418 -14.770866 12.858406 3.902926 -8.110656 -2.642578 -15.340300 -3.095618 2.591465 0.387196 -0.349556 2.210366 3.847522 0.081800 0.004860 0.055010 18.541039 -11.207732 3.212394 0.478659 -0.950390 -0.254365 8.019962 -6.017514 13.237318 -0.495355 -4.219864 2.962886 -0.027270 0.073170 0.088780 -4.248457 -0.746225 -8.332385 19.265683 3.594688 14.732230 -12.094045 8.466771 -3.652789 4.787251 -4.822321 -14.838518 -11.725282 2.852460 43.531894 -4.173840 1.031950 -5.767060 -14.666270 -6.960778 3.829786 1.880845 10.197465 0.143843 7.486486 -7.831381 -0.172617 -3.837269 2.714805 0.323760 -0.010680 0.091040 0.046650 4.536548 16.163928 10.727487 -4.371987 7.216579 -0.519872 -3.633202 -6.459153 0.122733 2.977697 -0.857942 -0.087350 0.148270 0.060230 -0.061290 
2.342140 17.698470 -2.268190 -2.094654 -20.498441 6.932841 -14.750305 12.847431 3.848041 -6.751847 -2.580109 -15.497081 -3.641798 2.597945 -0.269432 -0.346522 2.259673 3.855130 0.096520 -0.001480 0.076610 18.561260 -11.234977 3.165803 -0.375045 -0.860348 -1.291069 7.929192 -5.799768 12.188063 -0.479325 -4.073247 3.016501 -0.033450 0.077760 0.093480 -4.311083 -0.696231 -8.280468 18.302204 3.835935 13.532457 -11.458453 8.200849 -3.034855 4.288122 -4.399545 -14.326386 -11.497066 2.363900 43.846141 -3.971100 0.619530 -5.716950 -16.550401 -8.280890 4.076368 4.389443 10.254099 0.315565 7.256392 -6.642784 -0.200011 -3.795349 2.727926 0.353500 -0.019980 0.105670 0.069620 7.377789 16.217454 10.254294 -7.169532 5.907627 -1.029979 -3.518166 -6.507904 0.072161 2.968829 -0.871706 -0.098640 0.159440 0.036430 -0.063480 
2.409500 17.750380 -2.300840 -1.820939 -20.666662 7.296444 -14.738671 12.878198 3.788601 -4.988392 -2.441066 -15.699216 -4.751111 2.735537 -0.522559 -0.341506 2.338987 3.821873 0.108750 0.018900 0.090550 18.565735 -11.217057 3.169662 -0.785204 -0.873672 -1.792946 7.930410 -5.575363 10.812695 -0.464669 -3.951510 3.065344 -0.021240 0.062770 0.079460 -4.329670 -0.753517 -8.258456 17.902384 3.720004 13.239466 -11.397597 7.925000 -3.340853 4.022655 -4.147700 -13.868131 -11.221695 2.607968 43.883342 -3.826980 1.131850 -6.285070 -17.619877 -8.678283 3.828273 6.719206 9.665343 0.466248 6.398867 -5.460767 -0.208335 -3.783143 2.720563 0.361230 -0.027520 0.112300 0.066950 8.916673 15.861522 9.975502 -7.852215 5.074209 -1.198518 -4.646329 -5.296091 0.095933 2.930942 -0.893156 -0.102080 0.166250 0.027480 -0.073520 
2.479930 17.768140 -2.333900 -1.504556 -21.155055 7.655694 -14.717187 12.794881 3.699521 -3.333560 -2.300274 -15.679448 -5.944617 2.893820 -0.614385 -0.325459 2.476186 3.766908 0.101860 0.014620 0.083900 18.599359 -11.254961 3.131668 -1.425945 -0.744376 -2.499921 8.099584 -5.499882 10.217939 -0.434164 -3.954318 3.050641 -0.015260 0.076330 0.114960 -4.423057 -0.537317 -8.134125 17.641312 3.731218 12.147323 -11.565996 7.677206 -1.514830 4.113026 -3.877785 -13.449391 -10.207379 2.330209 41.710765 -5.188120 1.972490 -5.695330 -17.665749 -8.983798 3.915619 7.115795 8.751236 0.393143 7.755604 -4.224397 -0.250999 -3.856574 2.765410 0.315330 0.016950 0.089440 0.059750 8.696860 15.551444 9.713493 -7.728553 5.565537 -1.080969 -4.425844 -5.977861 0.041641 2.935090 -0.951010 -0.087460 0.126430 0.037650 -0.073240 
2.548050 17.773860 -2.363570 -1.145494 -21.513602 7.904439 -14.718420 12.744986 3.584098 -1.601784 -2.144840 -15.686837 -7.161588 3.180567 0.060297 -0.323061 2.664501 3.705071 0.077950 -0.006590 0.064410 18.613701 -11.249865 3.098203 -2.125259 -0.594791 -3.131935 8.673316 -5.494270 9.560494 -0.401900 -3.977001 3.039084 -0.009980 0.123380 0.139120 -4.459980 -0.440269 -7.981268 16.945691 3.591508 11.114344 -11.335795 7.205133 0.260518 4.022672 -3.985721 -12.947625 -9.931466 2.590588 39.273159 -5.913310 2.807150 -5.410250 -17.147446 -9.034553 3.882465 7.991637 7.250748 0.441728 6.914462 -1.829601 -0.342922 -3.957595 2.755153 0.274880 0.072310 0.053910 0.052410 8.419783 15.106613 9.411583 -8.013495 5.682867 -0.900897 -4.397021 -4.619786 -0.042605 2.879871 -0.994097 -0.095820 0.124130 0.064410 -0.070800 
2.643000 17.794570 -2.381670 -1.409459 -21.718484 7.927166 -14.705529 12.865052 3.478702 -0.282474 -1.962820 -15.448596 -6.469448 3.272817 1.040184 -0.323244 2.709767 3.699732 0.072820 -0.011290 0.071260 18.610286 -11.224011 3.145619 -2.290364 -0.583978 -3.078390 9.138439 -5.464594 8.774636 -0.400502 -3.983684 3.047420 -0.010560 0.142460 0.147470 -4.463797 -0.605705 -7.945019 17.634295 3.070316 11.190871 -11.595524 6.791747 0.006891 4.213460 -4.467409 -12.953234 -10.957844 3.232823 39.468445 -7.028530 3.567100 -4.848120 -17.312359 -8.985189 3.638820 8.308758 5.381720 0.267273 7.450404 0.847295 -0.382027 -4.044133 2.692372 0.257990 0.098160 0.048600 0.057340 8.218970 15.300794 9.497818 -8.199440 5.682581 -0.909926 -4.246114 -5.198251 -0.074069 2.888552 -0.994264 -0.097900 0.133090 0.062620 -0.068330 
2.798190 17.843640 -2.413520 -2.439471 -21.837985 7.105955 -14.682107 13.271580 3.380548 0.725429 -1.726615 -14.926791 -3.948718 3.222581 3.197211 -0.445540 2.689988 3.676354 0.114030 -0.007240 0.141400 18.565928 -11.161382 3.285411 -1.797771 -0.683548 -2.080065 9.454135 -5.524026 8.243435 -0.463497 -3.967606 3.048343 -0.004660 0.079390 0.161150 -4.377480 -1.230217 -8.032100 20.392697 1.532878 14.125924 -13.409861 6.423610 -3.269378 4.969775 -5.198795 -13.438528 -13.453070 4.896580 43.745364 -8.962330 4.617910 -7.002200 -18.035177 -8.409772 2.671272 9.613285 2.663730 0.118253 6.638358 4.371039 -0.567974 -4.113225 2.509688 0.379440 0.058600 0.105940 0.026900 7.342435 15.620719 9.977475 -6.552694 5.986074 -0.970999 -4.858124 -5.492449 0.083210 2.851662 -0.909883 -0.119400 0.154840 0.082530 -0.133160 
